<mxfile host="drawio-plugin" modified="2023-09-25T05:20:02.892Z" agent="5.0 (Windows NT 10.0; Win64; x64) AppleWebKit/537.36 (KHTML, like Gecko) Chrome/111.0.0.0 Safari/537.36" etag="ncFv-GsgbEdVHtSe4Ltv" version="20.5.3" type="embed"><diagram id="23iRSUPoRavnBvh4doch" name="Page-1"><mxGraphModel dx="698" dy="1109" grid="1" gridSize="10" guides="1" tooltips="1" connect="1" arrows="1" fold="1" page="1" pageScale="1" pageWidth="827" pageHeight="1169" math="0" shadow="0"><root><mxCell id="0"/><mxCell id="1" parent="0"/><mxCell id="13" value="" style="rounded=0;whiteSpace=wrap;html=1;" parent="1" vertex="1"><mxGeometry x="120" y="160" width="240" height="1000" as="geometry"/></mxCell><mxCell id="14" value="" style="rounded=0;whiteSpace=wrap;html=1;" parent="1" vertex="1"><mxGeometry x="360" y="160" width="240" height="1000" as="geometry"/></mxCell><mxCell id="15" value="" style="rounded=0;whiteSpace=wrap;html=1;" parent="1" vertex="1"><mxGeometry x="600" y="160" width="240" height="1000" as="geometry"/></mxCell><mxCell id="16" value="" style="rounded=0;whiteSpace=wrap;html=1;" parent="1" vertex="1"><mxGeometry x="80" y="160" width="40" height="1000" as="geometry"/></mxCell><mxCell id="17" value="Customer" style="rounded=0;whiteSpace=wrap;html=1;" parent="1" vertex="1"><mxGeometry x="120" y="120" width="240" height="40" as="geometry"/></mxCell><mxCell id="18" value="View" style="rounded=0;whiteSpace=wrap;html=1;" parent="1" vertex="1"><mxGeometry x="360" y="120" width="240" height="40" as="geometry"/></mxCell><mxCell id="19" value="ViewModel" style="rounded=0;whiteSpace=wrap;html=1;" parent="1" vertex="1"><mxGeometry x="600" y="120" width="240" height="40" as="geometry"/></mxCell><mxCell id="22" value="" style="ellipse;html=1;shape=startState;fillColor=#000000;strokeColor=#ff0000;" parent="1" vertex="1"><mxGeometry x="225" y="180" width="30" height="30" as="geometry"/></mxCell><mxCell id="23" value="" style="edgeStyle=orthogonalEdgeStyle;html=1;verticalAlign=bottom;endArrow=open;endSize=8;strokeColor=#ff0000;rounded=0;" parent="1" source="22" edge="1"><mxGeometry relative="1" as="geometry"><mxPoint x="240" y="270" as="targetPoint"/></mxGeometry></mxCell><mxCell id="26" value="" style="edgeStyle=orthogonalEdgeStyle;rounded=0;orthogonalLoop=1;jettySize=auto;html=1;" parent="1" source="24" target="25" edge="1"><mxGeometry relative="1" as="geometry"/></mxCell><mxCell id="24" value="Join Transfer Page" style="rounded=1;whiteSpace=wrap;html=1;" parent="1" vertex="1"><mxGeometry x="180" y="270" width="120" height="60" as="geometry"/></mxCell><mxCell id="27" style="edgeStyle=orthogonalEdgeStyle;rounded=0;orthogonalLoop=1;jettySize=auto;html=1;entryX=0;entryY=0.5;entryDx=0;entryDy=0;" edge="1" parent="1" source="25" target="28"><mxGeometry relative="1" as="geometry"/></mxCell><mxCell id="25" value="Request Information" style="rounded=1;whiteSpace=wrap;html=1;" parent="1" vertex="1"><mxGeometry x="420" y="270" width="120" height="60" as="geometry"/></mxCell><mxCell id="29" style="edgeStyle=orthogonalEdgeStyle;rounded=0;orthogonalLoop=1;jettySize=auto;html=1;entryX=1;entryY=0.5;entryDx=0;entryDy=0;" edge="1" parent="1" source="28" target="30"><mxGeometry relative="1" as="geometry"><Array as="points"><mxPoint x="720" y="410"/></Array></mxGeometry></mxCell><mxCell id="28" value="Retreive Agents / Exchanges Information" style="rounded=1;whiteSpace=wrap;html=1;" vertex="1" parent="1"><mxGeometry x="660" y="270" width="120" height="60" as="geometry"/></mxCell><mxCell id="38" style="edgeStyle=orthogonalEdgeStyle;rounded=0;orthogonalLoop=1;jettySize=auto;html=1;entryX=0.5;entryY=0;entryDx=0;entryDy=0;" edge="1" parent="1" source="30" target="31"><mxGeometry relative="1" as="geometry"/></mxCell><mxCell id="30" value="Display Information available Exchanges / Agents" style="rounded=1;whiteSpace=wrap;html=1;" vertex="1" parent="1"><mxGeometry x="420" y="380" width="120" height="60" as="geometry"/></mxCell><mxCell id="34" value="" style="edgeStyle=orthogonalEdgeStyle;rounded=0;orthogonalLoop=1;jettySize=auto;html=1;" edge="1" parent="1" source="31" target="33"><mxGeometry relative="1" as="geometry"/></mxCell><mxCell id="31" value="Selects Exchange and Agent" style="rounded=1;whiteSpace=wrap;html=1;" vertex="1" parent="1"><mxGeometry x="180" y="440" width="120" height="60" as="geometry"/></mxCell><mxCell id="37" value="" style="edgeStyle=orthogonalEdgeStyle;rounded=0;orthogonalLoop=1;jettySize=auto;html=1;" edge="1" parent="1" source="33" target="36"><mxGeometry relative="1" as="geometry"/></mxCell><mxCell id="33" value="Inserts Countries and ammount" style="whiteSpace=wrap;html=1;rounded=1;" vertex="1" parent="1"><mxGeometry x="180" y="540" width="120" height="60" as="geometry"/></mxCell><mxCell id="50" value="" style="edgeStyle=orthogonalEdgeStyle;rounded=0;orthogonalLoop=1;jettySize=auto;html=1;" edge="1" parent="1" source="36" target="49"><mxGeometry relative="1" as="geometry"/></mxCell><mxCell id="36" value="Calculate conversion" style="whiteSpace=wrap;html=1;rounded=1;" vertex="1" parent="1"><mxGeometry x="420" y="610" width="120" height="60" as="geometry"/></mxCell><mxCell id="42" value="" style="edgeStyle=orthogonalEdgeStyle;rounded=0;orthogonalLoop=1;jettySize=auto;html=1;" edge="1" parent="1" source="39" target="41"><mxGeometry relative="1" as="geometry"><Array as="points"><mxPoint x="240" y="910"/></Array></mxGeometry></mxCell><mxCell id="39" value="Accept Transfer" style="whiteSpace=wrap;html=1;rounded=1;" vertex="1" parent="1"><mxGeometry x="180" y="830" width="120" height="60" as="geometry"/></mxCell><mxCell id="45" value="" style="edgeStyle=orthogonalEdgeStyle;rounded=0;orthogonalLoop=1;jettySize=auto;html=1;" edge="1" parent="1" source="41" target="44"><mxGeometry relative="1" as="geometry"/></mxCell><mxCell id="41" value="Create Transfer" style="whiteSpace=wrap;html=1;rounded=1;" vertex="1" parent="1"><mxGeometry x="420" y="880" width="120" height="60" as="geometry"/></mxCell><mxCell id="47" value="" style="edgeStyle=orthogonalEdgeStyle;rounded=0;orthogonalLoop=1;jettySize=auto;html=1;" edge="1" parent="1" source="44"><mxGeometry relative="1" as="geometry"><mxPoint x="720" y="1020" as="targetPoint"/></mxGeometry></mxCell><mxCell id="44" value="Insert Transfer" style="whiteSpace=wrap;html=1;rounded=1;" vertex="1" parent="1"><mxGeometry x="660" y="880" width="120" height="60" as="geometry"/></mxCell><mxCell id="48" value="" style="ellipse;html=1;shape=endState;fillColor=#000000;strokeColor=#ff0000;" vertex="1" parent="1"><mxGeometry x="705" y="1020" width="30" height="30" as="geometry"/></mxCell><mxCell id="56" style="edgeStyle=orthogonalEdgeStyle;rounded=0;orthogonalLoop=1;jettySize=auto;html=1;entryX=1;entryY=0.5;entryDx=0;entryDy=0;" edge="1" parent="1" source="49" target="51"><mxGeometry relative="1" as="geometry"/></mxCell><mxCell id="49" value="Display Transfer" style="whiteSpace=wrap;html=1;rounded=1;" vertex="1" parent="1"><mxGeometry x="420" y="710" width="120" height="60" as="geometry"/></mxCell><mxCell id="52" style="edgeStyle=orthogonalEdgeStyle;rounded=0;orthogonalLoop=1;jettySize=auto;html=1;entryX=0.5;entryY=0;entryDx=0;entryDy=0;" edge="1" parent="1" source="51" target="39"><mxGeometry relative="1" as="geometry"><Array as="points"><mxPoint x="240" y="800"/><mxPoint x="240" y="800"/></Array></mxGeometry></mxCell><mxCell id="53" value="Yes" style="edgeLabel;html=1;align=center;verticalAlign=middle;resizable=0;points=[];" vertex="1" connectable="0" parent="52"><mxGeometry x="-0.28" relative="1" as="geometry"><mxPoint as="offset"/></mxGeometry></mxCell><mxCell id="54" style="edgeStyle=orthogonalEdgeStyle;rounded=0;orthogonalLoop=1;jettySize=auto;html=1;entryX=0;entryY=0.5;entryDx=0;entryDy=0;" edge="1" parent="1" source="51" target="31"><mxGeometry relative="1" as="geometry"><Array as="points"><mxPoint x="140" y="740"/><mxPoint x="140" y="470"/></Array></mxGeometry></mxCell><mxCell id="55" value="NO" style="edgeLabel;html=1;align=center;verticalAlign=middle;resizable=0;points=[];" vertex="1" connectable="0" parent="54"><mxGeometry x="-0.192" y="1" relative="1" as="geometry"><mxPoint as="offset"/></mxGeometry></mxCell><mxCell id="51" value="" style="rhombus;whiteSpace=wrap;html=1;" vertex="1" parent="1"><mxGeometry x="200" y="700" width="80" height="80" as="geometry"/></mxCell></root></mxGraphModel></diagram></mxfile>